<svg xmlns="http://www.w3.org/2000/svg" width="512" height="512" viewBox="0 0 512 512">
  <!-- Background circle -->
  <circle cx="256" cy="256" r="256" fill="#3d405b"/>
  
  <!-- Book base -->
  <path d="M120 160C120 149 129 140 140 140H320C331 140 340 149 340 160V340C340 351 331 360 320 360H140C129 360 120 351 120 340V160Z" fill="#f4f1de"/>
  
  <!-- Book pages -->
  <path d="M140 140H320C331 140 340 149 340 160V340C340 351 331 360 320 360H140C129 360 120 351 120 340V160C120 149 129 140 140 140Z" stroke="#3d405b" stroke-width="8"/>
  
  <!-- Book binding -->
  <path d="M140 140H160V360H140C129 360 120 351 120 340V160C120 149 129 140 140 140Z" fill="#e07a5f"/>
  
  <!-- Text lines on book -->
  <line x1="180" y1="180" x2="300" y2="180" stroke="#3d405b" stroke-width="6" stroke-linecap="round"/>
  <line x1="180" y1="210" x2="300" y2="210" stroke="#3d405b" stroke-width="6" stroke-linecap="round"/>
  <line x1="180" y1="240" x2="260" y2="240" stroke="#3d405b" stroke-width="6" stroke-linecap="round"/>
  
  <!-- Magnifying glass -->
  <circle cx="320" cy="280" r="70" fill="none" stroke="#deec13" stroke-width="16"/>
  <line x1="370" y1="330" x2="420" y2="380" stroke="#deec13" stroke-width="16" stroke-linecap="round"/>
  
  <!-- Highlight in magnifying glass -->
  <circle cx="300" cy="260" r="10" fill="#deec13"/>
</svg> 